<?xml version="1.0" encoding="utf-8"?>
<!-- Generator: Adobe Illustrator 25.0.0, SVG Export Plug-In . SVG Version: 6.00 Build 0)  -->
<svg version="1.1" id="圖層_1" xmlns="http://www.w3.org/2000/svg" xmlns:xlink="http://www.w3.org/1999/xlink" x="0px" y="0px"
	 viewBox="0 0 40 40" style="enable-background:new 0 0 40 40;" xml:space="preserve">
<g>
	<g>
		<path d="M6.88,7.54c-1.45,0-2.87,0-4.29,0c-0.21,0-0.43-0.02-0.63-0.09c-0.62-0.21-0.97-0.83-0.88-1.5
			c0.08-0.62,0.6-1.14,1.25-1.15c1.9-0.02,3.81-0.02,5.71,0C8.7,4.81,9.15,5.23,9.33,5.92C9.66,7.23,10,8.53,10.3,9.84
			c0.09,0.38,0.23,0.49,0.62,0.49c7.22-0.01,14.44,0.01,21.66-0.03c1.2-0.01,1.86,0.85,1.57,2c-0.98,3.76-1.89,7.54-2.84,11.31
			c-0.52,2.08-2.09,3.29-4.22,3.29c-4,0-7.99,0-11.99,0c-2.11,0-3.68-1.22-4.19-3.28C9.6,18.4,8.29,13.18,6.99,7.95
			C6.96,7.83,6.92,7.71,6.88,7.54z"/>
		<path d="M10.74,32.43c0.01-1.53,1.24-2.75,2.77-2.75c1.52,0.01,2.77,1.26,2.76,2.77c-0.01,1.51-1.27,2.76-2.78,2.76
			C11.97,35.21,10.73,33.95,10.74,32.43z"/>
		<path d="M25.95,32.46c-0.01-1.53,1.22-2.77,2.74-2.77c1.53,0,2.77,1.22,2.78,2.74c0.01,1.51-1.24,2.77-2.75,2.78
			C27.21,35.22,25.96,33.98,25.95,32.46z"/>
	</g>
</g>
</svg>
