<?xml version="1.0" encoding="utf-8"?>
<!-- Generator: Adobe Illustrator 25.0.0, SVG Export Plug-In . SVG Version: 6.00 Build 0)  -->
<svg version="1.1" id="圖層_1" xmlns="http://www.w3.org/2000/svg" xmlns:xlink="http://www.w3.org/1999/xlink" x="0px" y="0px"
	 viewBox="0 0 40 40" style="enable-background:new 0 0 40 40;" xml:space="preserve">
<style type="text/css">
	.st0{fill:#FFFFFF;}
</style>
<g>
	<path d="M3.53,14.6c0.14-0.67,0.24-1.35,0.44-1.99c1.3-4.09,5.37-6.71,9.63-6.25c2.18,0.24,4.03,1.13,5.59,2.67
		c0.26,0.26,0.5,0.53,0.79,0.84c0.31-0.33,0.57-0.62,0.85-0.9c4.52-4.42,11.99-3.17,14.7,2.49c1.57,3.28,1.11,6.45-0.9,9.43
		c-0.93,1.37-2.16,2.46-3.36,3.57c-3.21,3-6.59,5.81-9.97,8.6c-0.4,0.33-0.79,0.7-1.35,0.61c-0.3-0.05-0.65-0.12-0.89-0.31
		c-4.19-3.44-8.37-6.88-12.23-10.7c-1.36-1.35-2.43-2.87-2.94-4.74c-0.16-0.59-0.25-1.19-0.37-1.79C3.53,15.63,3.53,15.11,3.53,14.6
		z M19.97,30.38c0.11-0.09,0.19-0.14,0.26-0.21c2.32-1.97,4.67-3.93,6.95-5.95c1.52-1.34,3.02-2.73,4.41-4.21
		c1.72-1.82,2.36-4.02,1.63-6.46c-1.3-4.36-6.91-5.8-10.22-2.65c-0.63,0.6-1.25,1.24-1.87,1.86c-0.72,0.71-1.61,0.71-2.32-0.01
		c-0.6-0.6-1.2-1.23-1.82-1.81c-1.5-1.41-3.3-1.98-5.32-1.65c-4.07,0.67-6.3,4.78-4.71,8.6c0.49,1.18,1.31,2.12,2.21,3
		c2.52,2.49,5.22,4.79,7.93,7.08C18.04,28.78,18.99,29.56,19.97,30.38z"/>
	<path class="st0" d="M19.97,30.38c-0.97-0.81-1.93-1.61-2.87-2.4c-2.7-2.3-5.4-4.59-7.93-7.08c-0.9-0.89-1.72-1.81-2.21-3
		c-1.59-3.82,0.64-7.93,4.71-8.6c2.02-0.33,3.82,0.25,5.32,1.65c0.62,0.59,1.22,1.21,1.82,1.81c0.72,0.72,1.61,0.72,2.32,0.01
		c0.62-0.61,1.23-1.26,1.87-1.86c3.33-3.16,8.92-1.72,10.22,2.65c0.73,2.45,0.09,4.65-1.63,6.46c-1.4,1.47-2.89,2.86-4.41,4.21
		c-2.29,2.02-4.64,3.97-6.95,5.95C20.15,30.23,20.08,30.29,19.97,30.38z"/>
</g>
</svg>
