<?xml version="1.0" encoding="utf-8"?>
<!-- Generator: Adobe Illustrator 25.0.0, SVG Export Plug-In . SVG Version: 6.00 Build 0)  -->
<svg version="1.1" id="圖層_1" xmlns="http://www.w3.org/2000/svg" xmlns:xlink="http://www.w3.org/1999/xlink" x="0px" y="0px"
	 viewBox="0 0 40 40" style="enable-background:new 0 0 40 40;" xml:space="preserve">
<path d="M15.99,37.65c-0.74-0.38-0.9-0.72-0.7-1.53c1.11-4.49,2.23-8.97,3.34-13.46c0.03-0.11,0.05-0.22,0.08-0.38
	c-0.17,0-0.31,0-0.44,0c-2.92,0-5.84-0.03-8.76,0.02c-0.86,0.01-1.49-0.66-1.11-1.64c2.28-5.81,4.52-11.63,6.77-17.46
	c0.16-0.41,0.41-0.71,0.82-0.86c3.34,0,6.67,0,10.01,0c0.8,0.44,0.94,0.87,0.57,1.72c-1.26,2.87-2.53,5.73-3.79,8.6
	c-0.05,0.12-0.1,0.25-0.17,0.41c0.15,0.01,0.27,0.02,0.39,0.02c2.53,0,5.06,0,7.59,0c0.59,0,0.98,0.28,1.11,0.78
	c0.1,0.37-0.04,0.67-0.24,0.97c-1.68,2.62-3.37,5.23-5.05,7.85c-3.05,4.74-6.1,9.48-9.14,14.23c-0.2,0.32-0.44,0.58-0.79,0.72
	C16.31,37.65,16.15,37.65,15.99,37.65z"/>
</svg>
