<?xml version="1.0" encoding="utf-8"?>
<!-- Generator: Adobe Illustrator 25.0.0, SVG Export Plug-In . SVG Version: 6.00 Build 0)  -->
<svg version="1.1" id="圖層_1" xmlns="http://www.w3.org/2000/svg" xmlns:xlink="http://www.w3.org/1999/xlink" x="0px" y="0px"
	 viewBox="0 0 40 40" style="enable-background:new 0 0 40 40;" xml:space="preserve">
<path d="M24.9,20L15,10.1c-0.2-0.2-0.3-0.5-0.3-0.9s0.1-0.6,0.3-0.9C15.3,8.1,15.6,8,15.9,8s0.6,0.1,0.9,0.4l10.3,10.3
	c0.2,0.2,0.3,0.4,0.4,0.6c0.1,0.2,0.1,0.5,0.1,0.7s0,0.5-0.1,0.7s-0.2,0.4-0.4,0.6L16.8,31.6c-0.3,0.3-0.6,0.4-0.9,0.4
	c-0.3,0-0.6-0.1-0.9-0.4c-0.2-0.3-0.3-0.5-0.4-0.9s0.1-0.6,0.4-0.9L24.9,20z"/>
</svg>
