<?xml version="1.0" encoding="utf-8"?>
<!-- Generator: Adobe Illustrator 25.0.0, SVG Export Plug-In . SVG Version: 6.00 Build 0)  -->
<svg version="1.1" id="圖層_1" xmlns="http://www.w3.org/2000/svg" xmlns:xlink="http://www.w3.org/1999/xlink" x="0px" y="0px"
	 viewBox="0 0 40 40" style="enable-background:new 0 0 40 40;" xml:space="preserve">
<path d="M27.2,29.8c0.3,0.3,0.5,0.5,0.4,0.9c-0.1,0.4-0.2,0.6-0.4,0.9c-0.3,0.3-0.6,0.4-0.9,0.4s-0.6-0.1-0.9-0.4L15.1,21.3
	c-0.2-0.2-0.3-0.4-0.4-0.6s-0.1-0.5-0.1-0.7s0-0.5,0.1-0.7s0.2-0.4,0.4-0.6L25.4,8.4C25.7,8.1,26,8,26.3,8s0.6,0.1,0.9,0.3
	c0.2,0.3,0.3,0.5,0.3,0.9s-0.1,0.7-0.3,0.9L17.3,20L27.2,29.8z"/>
</svg>
